<svg version="1.0" xmlns="http://www.w3.org/2000/svg"
     width="603.000000pt" height="603.000000pt" viewBox="0 0 603.000000 603.000000"
     preserveAspectRatio="xMidYMid meet">
    <metadata>
        Created by potrace 1.11, written by Peter Selinger 2001-2013
    </metadata>
    <style>
        path {
            fill: black;
            stroke: black;
        }

        @media (prefers-color-scheme: dark) {
            path {
                fill: white;
                stroke: white;
            }
        }
    </style>
    <g transform="translate(0.000000,603.000000) scale(0.100000,-0.100000)"
       fill="#000000" stroke="none">
        <path d="M467 5764 c-63 -20 -128 -84 -150 -149 -16 -45 -17 -216 -17 -2084 0
-1372 3 -2048 10 -2073 16 -58 69 -118 130 -149 30 -15 57 -27 60 -27 3 0 353
0 778 -1 l772 -1 0 -249 0 -250 -287 -3 -288 -3 -45 -27 c-25 -14 -55 -38 -68
-53 -90 -104 -75 -278 31 -359 77 -59 -18 -56 1649 -56 1050 0 1542 3 1571 11
61 15 117 57 152 114 57 91 35 237 -45 309 -68 60 -70 61 -382 64 l-288 3 0
250 0 249 769 0 c835 0 813 -1 888 56 18 13 45 46 60 72 l28 47 3 2053 c1
1397 -1 2066 -8 2093 -16 59 -69 120 -130 151 l-55 28 -2545 -1 c-2222 0
-2551 -2 -2593 -15z m4833 -2234 l0 -1750 -2250 0 -2250 0 0 1750 0 1750 2250
0 2250 0 0 -1750z m-1750 -2500 l0 -250 -500 0 -500 0 0 250 0 250 500 0 500
0 0 -250z"/>
        <path d="M1745 4658 c-165 -83 -302 -152 -303 -154 -2 -1 24 -58 58 -126 35
-67 67 -131 71 -140 9 -19 11 -21 60 -119 17 -32 32 -59 34 -59 2 0 89 43 194
95 l191 95 191 -95 c106 -53 196 -92 200 -88 11 13 221 434 217 438 -5 4 -607
305 -610 305 -2 -1 -138 -69 -303 -152z"/>
        <path d="M4036 4803 c-4 -5 -11 -8 -14 -9 -4 0 -81 -38 -172 -84 -91 -46 -219
-110 -285 -143 -66 -32 -121 -60 -123 -62 -4 -4 217 -445 222 -445 3 0 90 43
195 95 l191 95 192 -96 c105 -52 195 -91 199 -87 11 12 221 434 217 438 -5 4
-607 305 -611 305 -2 0 -7 -3 -11 -7z"/>
        <path d="M2048 2942 l-176 -177 40 -35 c21 -19 56 -50 76 -68 63 -56 222 -158
327 -210 144 -72 242 -104 440 -147 96 -20 390 -27 513 -12 297 37 622 181
852 378 94 79 100 86 100 96 0 5 -78 86 -173 180 l-173 172 -34 -30 c-181
-158 -373 -252 -600 -294 -73 -14 -305 -13 -380 1 -78 15 -170 39 -205 53
-159 66 -237 111 -346 199 l-86 70 -175 -176z"/>
    </g>
</svg>
